<?xml version="1.0" encoding="utf-8"?>
<!-- Generator: Adobe Illustrator 22.1.0, SVG Export Plug-In . SVG Version: 6.00 Build 0)  -->
<svg version="1.1" id="Layer_1" xmlns="http://www.w3.org/2000/svg" xmlns:xlink="http://www.w3.org/1999/xlink" x="0px" y="0px"
	 viewBox="0 0 24 24" style="enable-background:new 0 0 24 24;" xml:space="preserve">
<path d="M14.4,21.4c-0.5,0.9-1.4,1.4-2.4,1.4c-0.5,0-0.9-0.1-1.4-0.4c-0.4-0.2-0.8-0.6-1-1c-0.2-0.4-0.1-0.8,0.3-1
	c0.4-0.2,0.8-0.1,1,0.3c0.1,0.2,0.3,0.3,0.5,0.5c0.6,0.3,1.4,0.1,1.7-0.5c0.2-0.4,0.7-0.5,1-0.3C14.5,20.6,14.6,21,14.4,21.4z
	 M22.8,17c0,0.4-0.3,0.8-0.8,0.8H2c-0.4,0-0.8-0.3-0.8-0.8s0.3-0.8,0.8-0.8c1.2,0,2.2-1,2.2-2.2V9c0-4.3,3.5-7.8,7.8-7.8
	s7.8,3.5,7.8,7.8v5c0,1.2,1,2.2,2.2,2.2C22.4,16.2,22.8,16.6,22.8,17z M19,16.2c-0.5-0.6-0.8-1.4-0.8-2.2V9c0-3.4-2.8-6.2-6.2-6.2
	S5.8,5.6,5.8,9v5c0,0.8-0.3,1.6-0.8,2.2H19z"/>
</svg>
