<?xml version="1.0" encoding="utf-8"?>
<!-- Generator: Adobe Illustrator 22.1.0, SVG Export Plug-In . SVG Version: 6.00 Build 0)  -->
<svg version="1.1" id="Layer_1" xmlns="http://www.w3.org/2000/svg" xmlns:xlink="http://www.w3.org/1999/xlink" x="0px" y="0px"
	 viewBox="0 0 24 24" style="enable-background:new 0 0 24 24;" xml:space="preserve">
<path d="M12,1.2C6.1,1.2,1.2,6.1,1.2,12S6.1,22.8,12,22.8S22.8,17.9,22.8,12S17.9,1.2,12,1.2z M12,21.2c-5.1,0-9.2-4.1-9.2-9.2
	S6.9,2.8,12,2.8s9.2,4.1,9.2,9.2S17.1,21.2,12,21.2z M15.5,9.5L13.1,12l2.5,2.5c0.3,0.3,0.3,0.8,0,1.1c-0.1,0.1-0.3,0.2-0.5,0.2
	s-0.4-0.1-0.5-0.2L12,13.1l-2.5,2.5c-0.1,0.1-0.3,0.2-0.5,0.2s-0.4-0.1-0.5-0.2c-0.3-0.3-0.3-0.8,0-1.1l2.5-2.5L8.5,9.5
	c-0.3-0.3-0.3-0.8,0-1.1s0.8-0.3,1.1,0l2.5,2.5l2.5-2.5c0.3-0.3,0.8-0.3,1.1,0S15.8,9.2,15.5,9.5z"/>
</svg>
